<svg xmlns="http://www.w3.org/2000/svg" viewBox="51.2 44.1 509.6 550.7"><path fill="#383838" d="M51.2 594.9v-22.8h71.9V411.8H51.2l248.7-243.9 248.6 243.9h-71.9v160.3h63.6v22.8H402.4V486.5l7.4 23.1c1.4 4.3 6.1 7.7 10.6 7.7h6.7c2.5 0 4.7-1 6.1-2.9 1.3-1.8 1.6-4.3.9-6.7L408 438.8c-1.4-4.3-6.1-7.7-10.6-7.7h-57.9c-4.6 0-9.2 3.4-10.6 7.7l-11.6 29.5-23.6-81.1c-1.6-5-6.9-8.8-12.1-8.8h-66c-5.2 0-10.5 3.9-12.1 8.8L181 456.8l-9.5 29.8 17.8 3.8c5.2 0 10.5-3.9 12.1-8.8l8.5-26.3v136.3c0 1.1.1 2.2.3 3.2h-159zm193.7-3.3v-88.9h7.2v88.9c0 1.1.1 2.2.3 3.2h-7.9c.3-1 .4-2.1.4-3.2zm42.4 0V455.3l13.2 52.2c.5 1.6 1.4 3 2.5 4.3.9 2.1 2.8 3.9 5.7 5.4.2 0 .3-.1.5-.1s.3.1.5.1h6.7c1.4 0 2.8-.3 4.1-.9 2.8-.1 5.2-1.2 6.7-3.3 1.5-2 1.9-4.7 1.1-7.3l6.2-19.3V594.8H287c.2-1 .3-2.1.3-3.2zm78 2.1v-71.8h6.4V594.8h-6.4v-1.1zm35.4-202.4c0-17.8-14.5-32.2-32.3-32.2-17.8 0-32.2 14.5-32.2 32.2 0 17.8 14.5 32.3 32.2 32.3 17.9-.1 32.3-14.6 32.3-32.3zM285.4 333c0-20.3-16.5-36.8-36.8-36.8-20.3 0-36.8 16.5-36.8 36.8 0 20.3 16.5 36.8 36.8 36.8 20.3 0 36.8-16.5 36.8-36.8zm163.3-80.4v-41.2h15.7v41.2h-15.7zm76-25l-29.1-29.1 11.1-11.1 29.1 29.1-11.1 11.1zm-136.3 0l-11.1-11.1 29.1-29.1 11.1 11.1-29.1 29.1zm17.6-79.2c0-27.9 22.7-50.6 50.6-50.6 27.9 0 50.6 22.7 50.6 50.6S484.5 199 456.6 199c-28-.1-50.6-22.7-50.6-50.6zm-53.7 7.8v-15.7h41.2v15.7h-41.2zm167.3 0v-15.7h41.2v15.7h-41.2zm-113.2-46.9l-29.1-29.1 11.1-11.1 29.1 29.1-11.1 11.1zm100.3 0l-11.1-11.1 29.1-29.1 11.1 11.1-29.1 29.1zm-58-24V44.1h15.7v41.2h-15.7z"/></svg>